<svg width="161" height="42" viewBox="0 0 161 42" fill="none" xmlns="http://www.w3.org/2000/svg">
<g clip-path="url(#clip0_11540_57609)">
<path d="M36.7371 0.078125H16.8423V7.46364H8.31651L0.5 21.0003L8.31442 34.5348H16.8423V41.9224H36.7371L48.8176 21.0003L36.7371 0.078125ZM32.4732 34.5348H16.8465L9.02996 21.0003L16.8465 7.46364H32.4732L40.2897 21.0003L32.4732 34.5348Z" fill="#00FFFF"/>
<path d="M102.163 27.0745C101.661 26.5828 101.041 26.3359 100.305 26.3359C99.5684 26.3359 99.0224 26.5828 98.5579 27.0745C98.0934 27.5683 97.8633 28.1813 97.8633 28.9198C97.8633 29.6584 98.1039 30.24 98.5872 30.7233C99.0705 31.2066 99.671 31.4493 100.391 31.4493C101.11 31.4493 101.711 31.2066 102.194 30.7233C102.677 30.2421 102.918 29.6395 102.918 28.9198C102.918 28.2001 102.667 27.5683 102.167 27.0745H102.163Z" fill="white"/>
<path d="M72.3425 15.8922C71.4722 14.369 70.2984 13.1911 68.8234 12.3584C67.3463 11.5257 65.7186 11.1094 63.9402 11.1094H56.1069V14.6871H63.6577C65.4173 14.6871 66.9111 15.2792 68.1434 16.4613C69.3737 17.6434 69.9888 19.1644 69.9888 21.016C69.9888 22.8676 69.3737 24.4221 68.1434 25.6147C66.9132 26.8073 65.4194 27.4035 63.6577 27.4035H59.7955V16.5721H56.1069V30.9812H63.9402C65.2646 30.9812 66.5241 30.7343 67.7166 30.2427C68.9092 29.7489 69.9407 29.0689 70.811 28.1986C71.6814 27.3282 72.3718 26.2737 72.8823 25.0352C73.3928 23.7966 73.6481 22.4575 73.6481 21.0181C73.6481 19.1267 73.2129 17.4195 72.3425 15.8943V15.8922Z" fill="white"/>
<path d="M84.8265 27.7371C83.4122 27.5509 82.1778 26.9337 81.1275 25.8813C79.8513 24.605 79.211 22.9815 79.211 21.0127C79.211 19.0439 79.8513 17.4224 81.1275 16.1441C82.4038 14.8679 83.952 14.2297 85.768 14.2297V10.5391C84.3663 10.5391 83.044 10.8006 81.7949 11.3195C80.5459 11.8404 79.4579 12.5539 78.5311 13.4619C77.6021 14.3699 76.8699 15.483 76.3301 16.799C75.7903 18.115 75.5225 19.5188 75.5225 21.0148C75.5225 22.5107 75.7924 23.9167 76.3301 25.2306C76.8699 26.5466 77.6021 27.6576 78.5311 28.5656C79.4579 29.4736 80.5459 30.1891 81.7949 30.708C82.7594 31.1097 83.77 31.3566 84.8265 31.4466V27.7371Z" fill="white"/>
<path d="M95.9322 19.6271H89.4107V22.9474H91.9862C91.7205 24.3869 91.0113 25.5564 89.8585 26.454C88.9421 27.1674 87.8918 27.5963 86.7139 27.7428V31.4544C88.2244 31.333 89.6283 30.9146 90.9213 30.2011C92.4821 29.3392 93.7228 28.1382 94.6413 26.5942C95.5597 25.0522 96.0179 23.3261 96.0179 21.4138C96.0179 20.6188 95.9907 20.0225 95.9322 19.625V19.6271Z" fill="white"/>
<path d="M119.012 13.0677C117.648 11.7621 115.947 11.1094 113.9 11.1094H105.299V30.9812H108.99V14.7436H113.616C114.695 14.7436 115.589 15.0511 116.3 15.6683C117.009 16.2813 117.363 17.0534 117.363 17.9823C117.363 18.9112 117.003 19.723 116.283 20.3674C115.564 21.0118 114.675 21.3319 113.614 21.3319H110.873V24.9661H113.614C115.677 24.9661 117.432 24.2903 118.88 22.9367C120.328 21.583 121.052 19.9322 121.052 17.9844C121.052 16.0365 120.37 14.3774 119.008 13.0719L119.012 13.0677Z" fill="white"/>
<path d="M131.671 27.5249C130.745 27.3659 129.958 26.9621 129.307 26.3114C128.445 25.4494 128.014 24.2631 128.014 22.7484V11.1094H124.326V23.0329C124.326 25.418 125.121 27.391 126.711 28.9518C128.083 30.2992 129.736 31.0628 131.674 31.249V27.527L131.671 27.5249Z" fill="white"/>
<path d="M137.214 11.1094V22.7484C137.214 24.2631 136.783 25.4494 135.921 26.3114C135.27 26.9621 134.483 27.3659 133.557 27.5249V31.249C135.492 31.0649 137.147 30.2992 138.519 28.9518C140.109 27.391 140.904 25.418 140.904 23.0329V11.1094H137.216H137.214Z" fill="white"/>
<path d="M159.747 22.8781C159.245 22.0349 158.55 21.3863 157.661 20.9323C158.456 20.4783 159.079 19.836 159.533 19.0012C159.987 18.1685 160.215 17.2605 160.215 16.2771C160.215 14.7833 159.671 13.5489 158.584 12.5718C157.496 11.5969 156.127 11.1094 154.481 11.1094H144.459V14.7436H154.14C154.841 14.7436 155.412 14.9381 155.857 15.3273C156.301 15.7143 156.525 16.2123 156.525 16.8169C156.525 17.499 156.307 18.0764 155.872 18.5493C155.437 19.0221 154.897 19.2586 154.255 19.2586H150.033V22.7777H154.255C154.972 22.7777 155.579 23.0099 156.071 23.4744C156.562 23.9388 156.809 24.5205 156.809 25.2214C156.809 25.826 156.583 26.3323 156.127 26.7403C155.673 27.1483 155.106 27.3512 154.424 27.3512H148.15V23.0622H148.145V16.6328H144.459V30.9854H154.765C156.391 30.9854 157.755 30.4791 158.853 29.4665C159.95 28.4559 160.5 27.2006 160.5 25.7047C160.5 24.6648 160.249 23.7233 159.749 22.8802L159.747 22.8781Z" fill="white"/>
</g>
<defs>
<clipPath id="clip0_11540_57609">
<rect width="160" height="41.8443" fill="white" transform="translate(0.5 0.078125)"/>
</clipPath>
</defs>
</svg>
